<svg viewBox="0 0 200 360" xmlns="http://www.w3.org/2000/svg" role="img" aria-label="Aroma lantern">
<line x1="100" y1="24" x2="100" y2="50" stroke="#C9822B" stroke-width="3"/>
<path d="M100 52 Q82 40 76 52 Q82 62 100 54" fill="none" stroke="#D4A03C" stroke-width="3"/>
<path d="M100 52 Q118 40 124 52 Q118 62 100 54" fill="none" stroke="#D4A03C" stroke-width="3"/>
<circle cx="100" cy="56" r="4" fill="#D4A03C"/>
<line x1="100" y1="60" x2="100" y2="70" stroke="#C9822B" stroke-width="2"/>
<rect x="68" y="68" width="64" height="16" rx="3" fill="#D4A03C"/>
<ellipse cx="100" cy="68" rx="32" ry="4" fill="#E0B255"/>
<ellipse cx="100" cy="140" rx="80" ry="58" fill="#E8862A"/>
<ellipse cx="100" cy="140" rx="44" ry="51" fill="#F5C266"/>
<ellipse cx="100" cy="140" rx="24" ry="44" fill="#F8D68F"/>
<path d="M100 84 L100 196" stroke="#C9611A" stroke-width="1.6" fill="none"/>
<path d="M86 85 Q70 140 86 195" stroke="#C9611A" stroke-width="1.6" fill="none"/>
<path d="M114 85 Q130 140 114 195" stroke="#C9611A" stroke-width="1.6" fill="none"/>
<path d="M70 88 Q46 140 70 192" stroke="#C9611A" stroke-width="1.6" fill="none"/>
<path d="M130 88 Q154 140 130 192" stroke="#C9611A" stroke-width="1.6" fill="none"/>
<path d="M54 96 Q28 140 54 184" stroke="#C9611A" stroke-width="1.6" fill="none"/>
<path d="M146 96 Q172 140 146 184" stroke="#C9611A" stroke-width="1.6" fill="none"/>
<rect x="68" y="192" width="64" height="16" rx="3" fill="#D4A03C"/>
<ellipse cx="100" cy="208" rx="32" ry="4" fill="#C08E2E"/>
<line x1="76" y1="210" x2="76" y2="228" stroke="#E8A63A" stroke-width="2"/>
<line x1="84" y1="210" x2="84" y2="232" stroke="#E8A63A" stroke-width="2"/>
<line x1="92" y1="210" x2="92" y2="234" stroke="#E8A63A" stroke-width="2"/>
<line x1="100" y1="210" x2="100" y2="235" stroke="#E8A63A" stroke-width="2"/>
<line x1="108" y1="210" x2="108" y2="234" stroke="#E8A63A" stroke-width="2"/>
<line x1="116" y1="210" x2="116" y2="232" stroke="#E8A63A" stroke-width="2"/>
<line x1="124" y1="210" x2="124" y2="228" stroke="#E8A63A" stroke-width="2"/>
<line x1="100" y1="235" x2="100" y2="248" stroke="#D4701F" stroke-width="3"/>
<circle cx="100" cy="252" r="7" fill="#E08A2C"/>
<rect x="92" y="258" width="16" height="12" rx="3" fill="#D4A03C"/>
<path d="M92 270 Q86 310 96 344 Q100 348 104 344 Q114 310 108 270 Z" fill="#E8681F"/>
<path d="M100 272 L100 344" stroke="#C9551A" stroke-width="1.2" fill="none"/>
<path d="M95 272 Q90 312 97 342" stroke="#C9551A" stroke-width="1" fill="none"/>
<path d="M105 272 Q110 312 103 342" stroke="#C9551A" stroke-width="1" fill="none"/>
</svg>
